<?xml version="1.0" ?><!DOCTYPE svg  PUBLIC '-//W3C//DTD SVG 1.1//EN'  'http://www.w3.org/Graphics/SVG/1.1/DTD/svg11.dtd'><svg height="100%" style="fill-rule:evenodd;clip-rule:evenodd;stroke-linejoin:round;stroke-miterlimit:2;" version="1.1" viewBox="0 0 32 32" width="100%" xml:space="preserve" xmlns="http://www.w3.org/2000/svg" xmlns:serif="http://www.serif.com/" xmlns:xlink="http://www.w3.org/1999/xlink"><path d="M16,5.5c-3.036,-0 -5.5,2.464 -5.5,5.5c0,3.036 2.464,5.5 5.5,5.5c3.036,0 5.5,-2.464 5.5,-5.5c0,-3.036 -2.464,-5.5 -5.5,-5.5Zm0,1c2.484,-0 4.5,2.016 4.5,4.5c0,2.484 -2.016,4.5 -4.5,4.5c-2.484,0 -4.5,-2.016 -4.5,-4.5c0,-2.484 2.016,-4.5 4.5,-4.5Z"/><path d="M16,18.5c-3.987,-0 -7.444,0.818 -9.163,1.978c-0.884,0.596 -1.337,1.304 -1.337,2.022c-0,0.718 0.453,1.426 1.337,2.022c1.719,1.16 5.176,1.978 9.163,1.978c3.987,-0 7.444,-0.818 9.163,-1.978c0.884,-0.596 1.337,-1.304 1.337,-2.022c0,-0.718 -0.453,-1.426 -1.337,-2.022c-1.719,-1.16 -5.176,-1.978 -9.163,-1.978Zm0,1c3.222,-0 6.083,0.539 7.854,1.385c0.543,0.259 0.978,0.543 1.274,0.854c0.23,0.242 0.372,0.492 0.372,0.761c0,0.269 -0.142,0.519 -0.372,0.761c-0.296,0.311 -0.731,0.595 -1.274,0.854c-1.771,0.846 -4.632,1.385 -7.854,1.385c-3.222,-0 -6.083,-0.539 -7.854,-1.385c-0.543,-0.259 -0.978,-0.543 -1.274,-0.854c-0.23,-0.242 -0.372,-0.492 -0.372,-0.761c-0,-0.269 0.142,-0.519 0.372,-0.761c0.296,-0.311 0.731,-0.595 1.274,-0.854c1.771,-0.846 4.632,-1.385 7.854,-1.385Z"/></svg>